<svg viewBox="0 0 681 681" fill="none" xmlns="http://www.w3.org/2000/svg">
<path d="M681 23.472C681 10.5087 670.491 0 657.528 0H84.4992C37.8316 0 0 37.8316 0 84.4992V657.528C0 670.491 10.5088 681 23.472 681H657.528C670.491 681 681 670.491 681 657.528V23.472Z" fill="#2344E2" fill-opacity="0.1"/>
<path d="M678.653 23.472C678.653 11.8051 669.195 2.3472 657.528 2.3472H84.4992C39.1279 2.3472 2.34723 39.1279 2.34723 84.4992V657.528C2.34723 669.195 11.8051 678.653 23.472 678.653H657.528C669.195 678.653 678.653 669.195 678.653 657.528V23.472Z" stroke="#54A4EE" stroke-opacity="0.21" stroke-width="4.6944"/>
</svg>
