
<svg width="206" height="46" viewBox="0 0 206 46" fill="none" xmlns="http://www.w3.org/2000/svg">
<g clip-path="url(#clip0_838_5471)">
<path d="M67.855 10.554C67.533 10.554 67.2471 10.7446 67.1333 11.0306L55.8059 39.7453C55.6172 40.2246 55.9891 40.7385 56.5276 40.7385H59.4642C59.7806 40.7385 60.0638 40.5531 60.1802 40.2751L62.7865 33.9928C62.8171 33.9213 62.8894 33.8736 62.9698 33.8736H76.3344C76.4178 33.8736 76.4927 33.924 76.5205 33.9981L78.863 40.2511C78.9713 40.5425 79.2627 40.7385 79.5875 40.7385H82.8408C83.3763 40.7385 83.7484 40.23 83.5648 39.7506L72.5097 11.036C72.3986 10.7472 72.11 10.554 71.7853 10.554H67.855ZM74.8051 30.2108H64.4714C64.3354 30.2108 64.2383 30.081 64.2883 29.9566L69.5398 16.6375C69.6035 16.4732 69.845 16.4759 69.9089 16.6401L74.9911 29.9593C75.0383 30.081 74.9439 30.2108 74.8051 30.2108Z" fill="#B0B0B0"/>
<path d="M92.769 20.54C92.0966 21.0378 91.6503 21.549 91.1924 22.4018V20.4684C91.1924 20.0631 90.8479 19.7321 90.4208 19.7321H87.9307C87.5062 19.7321 87.1591 20.0605 87.1591 20.4684V40.0008C87.1591 40.4061 87.5028 40.7371 87.9307 40.7371H90.4208C90.8453 40.7371 91.1924 40.4087 91.1924 40.0008V30.077C91.1924 27.802 91.5001 26.6102 92.4103 25.3469C93.4455 23.8876 95.0363 23.0851 96.8827 23.0851C97.1153 23.0851 97.3679 23.0983 97.5814 23.1142C97.8616 23.1354 98.1037 22.9235 98.1037 22.6534V19.703C98.1037 19.4487 97.8864 19.2421 97.6205 19.2421H97.0228C95.4216 19.2421 93.87 19.7136 92.769 20.54Z" fill="#B0B0B0"/>
<path d="M111.131 22.8222C112.935 22.8222 114.608 23.4287 116.108 24.6284C116.299 24.7794 116.579 24.7635 116.754 24.5967L118.703 22.7242C118.899 22.5361 118.886 22.2315 118.681 22.0541C116.482 20.1419 114.039 19.2494 111.039 19.2494C104.572 19.2494 100.057 23.7968 100.057 30.3094C100.057 36.6393 104.596 41.2343 110.853 41.2343C113.865 41.2343 116.202 40.3974 118.583 38.4535C118.789 38.2866 118.803 37.9873 118.623 37.7966L116.758 35.8341C116.582 35.6487 116.283 35.6302 116.085 35.7943C114.528 37.0974 113.01 37.6588 111.083 37.6588C107.017 37.6588 104.175 34.5814 104.175 30.1769C104.178 25.844 107.036 22.8222 111.131 22.8222Z" fill="#B0B0B0"/>
<path d="M139.163 22.6879C137.109 20.3095 134.767 19.2421 131.649 19.2421C125.582 19.2421 121.18 23.8928 121.18 30.3022C121.18 36.632 125.544 41.2271 131.555 41.2271C134.698 41.2271 137.067 40.0008 139.163 37.2677V40.0035C139.163 40.4087 139.507 40.7398 139.934 40.7398H142.425C142.849 40.7398 143.196 40.4113 143.196 40.0035V20.4684C143.196 20.0631 142.852 19.7321 142.425 19.7321H139.934C139.51 19.7321 139.163 20.0605 139.163 20.4684V22.6879ZM139.213 30.0347C139.213 34.3331 136.007 37.8292 132.069 37.8292C128.264 37.8292 125.393 34.6324 125.393 30.3895C125.393 28.4615 126.023 26.5281 127.122 25.0874L127.125 25.0847C128.339 23.4559 129.893 22.7301 132.163 22.7301C136.315 22.7301 139.213 25.7335 139.213 30.0347Z" fill="#B0B0B0"/>
<path d="M165.4 22.4563C163.367 20.2659 160.981 19.241 157.933 19.241C152.017 19.241 147.557 24.0162 147.557 30.3461C147.557 36.7526 151.823 41.2259 157.933 41.2259C161.05 41.2259 163.317 40.1533 165.4 37.6637V40.0023C165.4 40.4075 165.743 40.7386 166.171 40.7386H168.66C169.084 40.7386 169.431 40.4102 169.431 40.0023V11.285C169.431 10.8798 169.088 10.5488 168.66 10.5488H166.171C165.747 10.5488 165.4 10.8772 165.4 11.285V22.4563ZM165.4 30.301C165.4 34.663 162.474 37.828 158.446 37.828C154.516 37.828 151.771 34.769 151.771 30.3885C151.771 25.8066 154.547 22.7291 158.679 22.7291C162.695 22.7291 165.4 25.7722 165.4 30.301Z" fill="#B0B0B0"/>
<path d="M176.118 12.1353C175.53 12.3948 175.086 12.9033 174.92 13.5019C174.434 15.2445 175.619 16.6933 177.29 16.6933C178.709 16.6933 179.818 15.6524 179.818 14.3255C179.818 12.5643 178.036 11.2904 176.118 12.1353Z" fill="#B0B0B0"/>
<path d="M176.048 40.8551H178.538C178.962 40.8551 179.309 40.5267 179.309 40.1188V20.5864C179.309 20.1811 178.965 19.85 178.538 19.85H176.048C175.623 19.85 175.276 20.1784 175.276 20.5864V40.1188C175.278 40.5241 175.623 40.8551 176.048 40.8551Z" fill="#B0B0B0"/>
<path d="M201.525 20.5873V22.8067C199.474 20.4284 197.128 19.361 194.011 19.361C187.944 19.361 183.541 24.0118 183.541 30.421C183.541 36.7508 187.906 41.3459 193.917 41.3459C197.06 41.3459 199.429 40.1197 201.525 37.3865V40.1223C201.525 40.5276 201.869 40.8586 202.296 40.8586H204.787C205.211 40.8586 205.558 40.5302 205.558 40.1223V20.5873C205.558 20.1821 205.214 19.851 204.787 19.851H202.296C201.872 19.851 201.525 20.1794 201.525 20.5873ZM201.575 30.1536C201.575 34.452 198.369 37.948 194.431 37.948C190.626 37.948 187.755 34.7512 187.755 30.5084C187.755 28.5803 188.386 26.6469 189.484 25.2062L189.488 25.2035C190.7 23.5747 192.255 22.849 194.525 22.849C198.677 22.849 201.575 25.8524 201.575 30.1536Z" fill="#B0B0B0"/>
<path d="M23.0327 0.768921C10.3133 0.768921 0 10.6098 0 22.7463C0 29.8397 3.52812 36.1522 8.99959 40.1715C9.22951 40.3387 9.55796 40.2525 9.67291 40.0018L20.4598 16.2275C20.531 16.0708 20.6924 15.9689 20.8731 15.9689H25.247C25.4276 15.9689 25.5891 16.0708 25.6603 16.2275L36.417 39.9861C36.532 40.2394 36.8632 40.3256 37.0904 40.1558C38.1469 39.3802 39.1268 38.5183 40.03 37.5808C43.7716 33.6658 46.0626 28.4606 46.0626 22.7463C46.0653 10.6098 35.7493 0.768921 23.0327 0.768921ZM37.8923 31.1977C37.7089 31.4902 37.2628 31.4537 37.1205 31.1403C36.5786 29.9468 35.9818 28.6304 35.3524 27.2384C35.262 27.0399 35.2565 26.8154 35.3277 26.6064C35.7464 25.3919 35.9901 24.0939 35.9901 22.7437C35.9901 15.9168 30.1901 10.3826 23.0353 10.3826C15.8806 10.3826 10.0752 15.9194 10.0752 22.7463C10.0752 24.1175 10.3243 25.4338 10.7567 26.669C10.8307 26.878 10.8225 27.1026 10.7321 27.3037C10.1026 28.6905 9.51141 30.0042 8.9722 31.1925C8.8299 31.5033 8.38643 31.5425 8.20307 31.25C6.63745 28.7663 5.73695 25.8568 5.73695 22.7463C5.73695 13.6315 13.4802 6.24302 23.0327 6.24302C32.5851 6.24302 40.3284 13.6315 40.3284 22.7463C40.3284 25.8359 39.4388 28.7271 37.8923 31.1977Z" fill="#B0B0B0"/>
<path d="M30.6861 37.8505C30.6259 37.7148 30.459 37.6573 30.3194 37.7199C28.1106 38.7046 25.6444 39.2531 23.0387 39.2531C20.4467 39.2531 17.9888 38.7046 15.78 37.7278C15.6403 37.6651 15.4733 37.7252 15.4132 37.8584L13.4178 42.2564C13.3221 42.4679 13.4178 42.7161 13.6396 42.8128C16.5107 44.0428 19.6885 44.7271 23.0387 44.7271C26.3971 44.7271 29.5748 44.0376 32.4515 42.805C32.6732 42.7109 32.7718 42.4628 32.6732 42.2486C32.2491 41.3085 31.5401 39.7414 30.6861 37.8505Z" fill="#B0B0B0"/>
<path d="M23.0299 35.1077C25.0279 35.1077 26.911 34.6559 28.6026 33.8828C28.7312 33.8227 28.7859 33.6792 28.7312 33.5537L23.2077 21.365C23.1447 21.2266 22.9395 21.2266 22.8765 21.365L17.3476 33.5589C17.2901 33.6843 17.3449 33.8305 17.4763 33.8881C19.1623 34.6612 21.04 35.1077 23.0299 35.1077Z" fill="#B0B0B0"/>
</g>
<defs>
<clipPath id="clip0_838_5471">
<rect width="205.88" height="44.4622" fill="white" transform="translate(0 0.768921)"/>
</clipPath>
</defs>
</svg>
