<svg viewBox="0 0 28 26" fill="green" xmlns="http://www.w3.org/2000/svg">
<g clip-path="url(#clip0_816_4995)">
<path d="M22.5275 21.3877H18.7652V15.7725C18.7652 14.4335 18.7401 12.7098 16.8083 12.7098C14.8488 12.7098 14.5489 14.1687 14.5489 15.675V21.3873H10.7866V9.84016H14.3984V11.4182H14.449C14.8105 10.8292 15.3328 10.3447 15.9604 10.0162C16.5879 9.68773 17.2972 9.52762 18.0127 9.55293C21.826 9.55293 22.5291 11.9433 22.5291 15.0531L22.5275 21.3877ZM6.54137 8.26174C6.10954 8.26181 5.68738 8.13985 5.32828 7.91127C4.96919 7.6827 4.68931 7.35777 4.52398 6.97758C4.35866 6.5974 4.31533 6.17903 4.3995 5.77539C4.48367 5.37174 4.69155 5.00095 4.99684 4.70989C5.30213 4.41884 5.69113 4.2206 6.11465 4.14024C6.53816 4.05988 6.97716 4.10101 7.37614 4.25843C7.77513 4.41585 8.11617 4.68249 8.35614 5.02463C8.59612 5.36677 8.72425 5.76905 8.72433 6.18059C8.72438 6.45384 8.66795 6.72442 8.55827 6.97689C8.4486 7.22936 8.28783 7.45878 8.08512 7.65203C7.88242 7.84528 7.64174 7.99859 7.37686 8.1032C7.11198 8.20782 6.82809 8.26169 6.54137 8.26174ZM8.42255 21.3877H4.65626V9.84016H8.42255V21.3877ZM24.4032 0.770413H2.76568C2.27457 0.765131 1.80132 0.945883 1.44998 1.27295C1.09863 1.60001 0.897931 2.04663 0.891937 2.51467V23.2212C0.897726 23.6895 1.09831 24.1364 1.44964 24.4638C1.80098 24.7912 2.27432 24.9723 2.76568 24.9674H24.4032C24.8956 24.9732 25.3702 24.7927 25.7229 24.4653C26.0757 24.1379 26.2776 23.6904 26.2844 23.2212V2.51317C26.2774 2.04421 26.0753 1.59708 25.7226 1.27003C25.3698 0.942968 24.8953 0.762734 24.4032 0.768919" fill="green"/>
</g>
<defs>
<clipPath id="clip0_816_4995">
<rect width="26.2772" height="24.3998" fill="green" transform="translate(0.891937 0.768764)"/>
</clipPath>
</defs>
</svg>
